<?xml version="1.0" encoding="UTF-8"?>
<svg version="1.1" xmlns="http://www.w3.org/2000/svg" width="336" height="117">
<path d="M0 0 C110.88 0 221.76 0 336 0 C336 38.61 336 77.22 336 117 C225.12 117 114.24 117 0 117 C0 78.39 0 39.78 0 0 Z " fill="#FDFEFD" transform="translate(0,0)"/>
<path d="M0 0 C1.65 0 3.3 0 5 0 C5 2.64 5 5.28 5 8 C12.59 8 20.18 8 28 8 C28 5.36 28 2.72 28 0 C29.65 0 31.3 0 33 0 C33 6.27 33 12.54 33 19 C30.6796875 18.87625 30.6796875 18.87625 28.3125 18.75 C24.54226961 18.73931946 23.24454835 18.85027652 19.9375 20.875 C16.75446099 24.36607504 16.88807395 26.47895132 16.9375 31.125 C16.958125 33.06375 16.97875 35.0025 17 37 C11.39 37 5.78 37 0 37 C0 24.79 0 12.58 0 0 Z " fill="#32F501" transform="translate(38,28)"/>
<path d="M0 0 C0.86625 0.350625 1.7325 0.70125 2.625 1.0625 C5.52671625 2.20791431 7.02208889 1.70737756 10 1 C8.52564317 25.05529569 8.52564317 25.05529569 4.5 29.1875 C0.05294022 32.41161834 -3.59307299 32.69737585 -9 32 C-11.36185168 30.90291271 -12.96522046 29.6695627 -15 28 C-14.01 26.515 -14.01 26.515 -13 25 C-10.83125748 25.50603992 -9.00032373 25.99983813 -7 27 C-2.8495801 27.41572115 -2.8495801 27.41572115 0.8125 25.75 C2.11258722 23.83408198 2.60856977 22.27029534 3 20 C2.484375 20.33 1.96875 20.66 1.4375 21 C-1.89310774 22.36640318 -4.42646082 22.31346835 -8 22 C-10.82275936 20.74544028 -12.46288541 19.71615278 -14.3125 17.25 C-15.34615225 13.86713808 -15.4789813 11.53248709 -15 8 C-10.85874879 1.58487159 -7.70161717 -0.39160765 0 0 Z " fill="#121212" transform="translate(243,75)"/>
<path d="M0 0 C2.1873504 2.04434792 3.73084962 4.0079657 5.19140625 6.6171875 C5.57876953 7.30683594 5.96613281 7.99648437 6.36523438 8.70703125 C6.95788086 9.78017578 6.95788086 9.78017578 7.5625 10.875 C7.96146484 11.58269531 8.36042969 12.29039063 8.77148438 13.01953125 C10.77207529 16.60656738 12.59531548 20.12762646 14 24 C17.92179717 20.19354981 21.48158 16.17924 25 12 C28.51842 7.82076 32.07820283 3.80645019 36 0 C34 18 34 18 32 36 C29.525 36.495 29.525 36.495 27 37 C26.88233579 29.94014727 27.33411422 23.02747312 28 16 C22.2489329 22.27725276 22.2489329 22.27725276 17.125 29.0625 C16.42375 30.031875 15.7225 31.00125 15 32 C14.34 32 13.68 32 13 32 C10.03 26.72 7.06 21.44 4 16 C2.46298119 17.53701881 2.67701275 19.11807163 2.46484375 21.25390625 C2.37783203 22.10791016 2.29082031 22.96191406 2.20117188 23.84179688 C2.0706543 25.18854492 2.0706543 25.18854492 1.9375 26.5625 C1.84662109 27.46419922 1.75574219 28.36589844 1.66210938 29.29492188 C1.43746077 31.52958434 1.21694231 33.76457839 1 36 C-1.475 36.495 -1.475 36.495 -4 37 C-4.17408316 29.77176436 -3.50660205 22.84950205 -2.5625 15.6875 C-2.42779297 14.61693359 -2.29308594 13.54636719 -2.15429688 12.44335938 C-1.05604898 3.88774044 -1.05604898 3.88774044 0 0 Z " fill="#111111" transform="translate(102,60)"/>
<path d="M0 0 C0.7734375 0.4640625 0.7734375 0.4640625 1.5625 0.9375 C1.5625 0.2775 1.5625 -0.3825 1.5625 -1.0625 C2.8825 -1.0625 4.2025 -1.0625 5.5625 -1.0625 C5.42095864 1.50030208 5.27441438 4.06265485 5.125 6.625 C5.08568359 7.34623047 5.04636719 8.06746094 5.00585938 8.81054688 C4.78064322 12.60457282 4.43410695 16.22401492 3.5625 19.9375 C1.9125 19.9375 0.2625 19.9375 -1.4375 19.9375 C-1.4375 19.2775 -1.4375 18.6175 -1.4375 17.9375 C-2.13875 18.2675 -2.84 18.5975 -3.5625 18.9375 C-6.83662675 20.07632669 -8.99456125 20.36786734 -12.4375 19.9375 C-15.77511045 17.78659549 -17.17220933 16.73337201 -18.4375 12.9375 C-18.90525866 9.46272138 -19.10275197 7.00274524 -17.203125 3.9609375 C-12.14804111 -2.12017826 -7.60285557 -3.31406525 0 0 Z " fill="#0F0F0F" transform="translate(217.4375,77.0625)"/>
<path d="M0 0 C2.4375 1.5 2.4375 1.5 4 3 C4.33 2.34 4.66 1.68 5 1 C6.32 1 7.64 1 9 1 C8.85796663 3.37528151 8.71148388 5.75015251 8.5625 8.125 C8.52318359 8.79015625 8.48386719 9.4553125 8.44335938 10.140625 C8.187848 14.15018817 7.73217587 18.04994196 7 22 C5.35 22 3.7 22 2 22 C2 21.34 2 20.68 2 20 C1.29875 20.33 0.5975 20.66 -0.125 21 C-3.42897847 22.1492099 -5.52903112 22.50618296 -9 22 C-11.8125 19.5625 -11.8125 19.5625 -14 17 C-14.33 16.67 -14.66 16.34 -15 16 C-15.80799112 9.30521643 -15.80799112 9.30521643 -13.73046875 5.94921875 C-9.37450443 0.83016579 -6.94044203 -0.47865117 0 0 Z " fill="#111111" transform="translate(157,75)"/>
<path d="M0 0 C0.66 0.66 1.32 1.32 2 2 C2.66 1.34 3.32 0.68 4 0 C5.32 0 6.64 0 8 0 C7.34 6.93 6.68 13.86 6 21 C4.35 21 2.7 21 1 21 C0.67 20.34 0.34 19.68 0 19 C-0.99 19.66 -1.98 20.32 -3 21 C-7.82698169 21.5449818 -9.89592369 21.71304929 -14 19.0625 C-16.69518759 14.935494 -16.92115665 11.80015576 -16 7 C-14.38970649 3.83692346 -12.97868759 1.80392195 -10.25 -0.4375 C-6.61385031 -1.34653742 -3.67765623 -0.71180443 0 0 Z " fill="#101010" transform="translate(136,26)"/>
<path d="M0 0 C1.65 0 3.3 0 5 0 C4.34 8.25 3.68 16.5 3 25 C7.455 21.535 7.455 21.535 12 18 C13.32 18.33 14.64 18.66 16 19 C16 19.66 16 20.32 16 21 C14.46875 22.2890625 14.46875 22.2890625 12.5 23.625 C11.8503125 24.07101563 11.200625 24.51703125 10.53125 24.9765625 C10.0259375 25.31429687 9.520625 25.65203125 9 26 C10.68673918 30.49797113 12.81673892 34.72886302 15 39 C13.02 39 11.04 39 9 39 C7.68 36.36 6.36 33.72 5 31 C4.01 31 3.02 31 2 31 C1.67 33.64 1.34 36.28 1 39 C-0.65 39 -2.3 39 -4 39 C-3.44812014 25.88809586 -1.81501964 12.99028168 0 0 Z " fill="#121212" transform="translate(174,8)"/>
<path d="M0 0 C3.21724618 2.84314779 3.20641994 4.24337121 3.6875 8.375 C1.77344633 9.04913211 -0.14386026 9.7140332 -2.0625 10.375 C-3.12984375 10.74625 -4.1971875 11.1175 -5.296875 11.5 C-8.3125 12.375 -8.3125 12.375 -12.3125 12.375 C-11.3225 13.86 -11.3225 13.86 -10.3125 15.375 C-8.10524927 15.73862818 -8.10524927 15.73862818 -5.6875 15.5625 C-4.87023437 15.53542969 -4.05296875 15.50835937 -3.2109375 15.48046875 C-2.27121094 15.42826172 -2.27121094 15.42826172 -1.3125 15.375 C-1.3125 16.695 -1.3125 18.015 -1.3125 19.375 C-5.02685156 20.61311719 -8.45963935 21.06596136 -12.3125 20.375 C-16.1618532 17.26275699 -18.07747529 15.0873229 -18.75 10.1875 C-18.1786751 5.20881162 -16.06211876 2.60459864 -12.3125 -0.625 C-7.54351187 -2.21466271 -4.56341542 -2.23865662 0 0 Z " fill="#131313" transform="translate(276.3125,76.625)"/>
<path d="M0 0 C7.92 0 15.84 0 24 0 C24 1.65 24 3.3 24 5 C20.7 5 17.4 5 14 5 C13.86722656 6.4953125 13.73445313 7.990625 13.59765625 9.53125 C13.41934395 11.52083989 13.24095444 13.51042286 13.0625 15.5 C12.93198242 16.97339844 12.93198242 16.97339844 12.79882812 18.4765625 C11.34254808 34.65745192 11.34254808 34.65745192 10 36 C8.33382885 36.04063832 6.66611905 36.042721 5 36 C5.47686832 31.95805871 5.95690136 27.9164993 6.4375 23.875 C6.57220703 22.73289062 6.70691406 21.59078125 6.84570312 20.4140625 C7.04389648 18.75117187 7.04389648 18.75117187 7.24609375 17.0546875 C7.36654053 16.03874512 7.4869873 15.02280273 7.61108398 13.97607422 C8.00396608 10.96965066 8.48390313 7.98751926 9 5 C6.03 5 3.06 5 0 5 C0 3.35 0 1.7 0 0 Z " fill="#0F0F0F" transform="translate(99,11)"/>
<path d="M0 0 C1.6640625 1.23046875 1.6640625 1.23046875 3 3 C3.328125 5.19921875 3.328125 5.19921875 3.25 7.6875 C3.22421875 8.56535156 3.1984375 9.44320312 3.171875 10.34765625 C2.9395263 13.93321914 2.52656501 17.44568618 2 21 C0.35 21.33 -1.3 21.66 -3 22 C-3 16.39 -3 10.78 -3 5 C-4.98 5.33 -6.96 5.66 -9 6 C-11.27474277 9.41211416 -11.56629644 11.6568529 -12.125 15.6875 C-12.29257813 16.86699219 -12.46015625 18.04648438 -12.6328125 19.26171875 C-12.75398437 20.16535156 -12.87515625 21.06898437 -13 22 C-14.65 22 -16.3 22 -18 22 C-18.10150789 17.07052311 -17.74242572 12.43466881 -17 7.5625 C-16.814375 6.32628906 -16.62875 5.09007813 -16.4375 3.81640625 C-16.293125 2.88699219 -16.14875 1.95757812 -16 1 C-14.35 1 -12.7 1 -11 1 C-11 1.66 -11 2.32 -11 3 C-10.29875 2.505 -9.5975 2.01 -8.875 1.5 C-5.56074794 -0.22917499 -3.68722891 -0.4809429 0 0 Z " fill="#151515" transform="translate(190,75)"/>
<path d="M0 0 C2.58889246 0.52059251 3.49810201 1.42999826 5.15625 3.43359375 C4.16625 4.09359375 3.17625 4.75359375 2.15625 5.43359375 C1.82625 5.10359375 1.49625 4.77359375 1.15625 4.43359375 C-0.50992115 4.39295543 -2.17763095 4.39087275 -3.84375 4.43359375 C-3.84375 5.42359375 -3.84375 6.41359375 -3.84375 7.43359375 C-2.420625 8.11421875 -2.420625 8.11421875 -0.96875 8.80859375 C2.15625 10.43359375 2.15625 10.43359375 4.15625 12.43359375 C3.96875 15.93359375 3.96875 15.93359375 3.15625 19.43359375 C-0.54776128 21.9029346 -3.54962865 21.88287808 -7.84375 21.43359375 C-10.34375 20.43359375 -10.34375 20.43359375 -11.84375 19.43359375 C-11.34875 17.94859375 -11.34875 17.94859375 -10.84375 16.43359375 C-7.87375 16.76359375 -4.90375 17.09359375 -1.84375 17.43359375 C-2.17375 16.11359375 -2.50375 14.79359375 -2.84375 13.43359375 C-3.83375 12.97984375 -4.82375 12.52609375 -5.84375 12.05859375 C-8.84375 10.43359375 -8.84375 10.43359375 -9.90625 7.49609375 C-9.84375 4.43359375 -9.84375 4.43359375 -8.96875 2.05859375 C-6.01277507 -0.20185767 -3.63693363 -0.00606156 0 0 Z " fill="#111111" transform="translate(159.84375,25.56640625)"/>
<path d="M0 0 C1.9375 1 1.9375 1 3 3 C3.45993448 5.75960686 3.50517819 8.24448261 3 11 C0.70259039 13.9406843 -0.85412592 13.98208564 -4.5625 14.4375 C-8 14 -8 14 -10 12.4375 C-11.43452262 8.94085111 -10.92093323 6.61795196 -10 3 C-7.67176656 -1.00973537 -4.26219805 -0.45666408 0 0 Z " fill="#F6F6F6" transform="translate(244,79)"/>
<path d="M0 0 C2.4375 1.5625 2.4375 1.5625 4 4 C4 7.78814147 3.8367392 10.03929943 1.3125 12.9375 C-1.69101831 14.3174949 -3.72976207 14.41747718 -7 14 C-8.875 12.9375 -8.875 12.9375 -10 11 C-10.50030235 7.06905293 -10.5996142 4.8994213 -8.375 1.5625 C-5.28314769 -0.47161336 -3.63632575 -0.60605429 0 0 Z " fill="#F5F5F5" transform="translate(214,79)"/>
<path d="M0 0 C3.375 0.875 3.375 0.875 5.375 2.875 C5.70183936 6.40486508 5.72874004 9.01275866 4.375 12.3125 C1.66552334 14.42927864 -0.3714149 14.44425885 -3.74609375 14.2578125 C-5.625 13.875 -5.625 13.875 -7.6875 12.25 C-8.97429352 8.99012309 -8.6652768 7.20388575 -7.625 3.875 C-5.23357082 0.28785622 -4.37106868 -0.15072651 0 0 Z " fill="#F4F4F4" transform="translate(132.625,29.125)"/>
<path d="M0 0 C2.4375 1.5625 2.4375 1.5625 4 4 C3.93913078 7.46954545 3.6274029 9.91947278 1.875 12.9375 C-1.17468171 14.66565297 -3.58518389 14.42685201 -7 14 C-9 12.4375 -9 12.4375 -10 10 C-9.87890756 6.54886548 -9.63213135 4.03137221 -7.8125 1.0625 C-5.04411529 -0.56034621 -3.14454533 -0.44922076 0 0 Z " fill="#F8F8F8" transform="translate(157,79)"/>
<path d="M0 0 C-0.1875 2.375 -0.1875 2.375 -1 5 C-3.375 6.0625 -3.375 6.0625 -6 7 C-8.78679274 9.97481731 -9.42287868 12.2277559 -9.6875 16.25 C-9.75324219 17.14203125 -9.81898438 18.0340625 -9.88671875 18.953125 C-9.92410156 19.62859375 -9.96148437 20.3040625 -10 21 C-11.65 21.33 -13.3 21.66 -15 22 C-14.85888117 19.24968413 -14.71228835 16.49984582 -14.5625 13.75 C-14.52318359 12.97269531 -14.48386719 12.19539063 -14.44335938 11.39453125 C-14.40146484 10.64042969 -14.35957031 9.88632813 -14.31640625 9.109375 C-14.27974854 8.41811523 -14.24309082 7.72685547 -14.20532227 7.01464844 C-13.99324476 4.93371671 -13.55491323 3.01427578 -13 1 C-11.68 1 -10.36 1 -9 1 C-8.67 1.99 -8.34 2.98 -8 4 C-7.236875 3.34 -6.47375 2.68 -5.6875 2 C-3 0 -3 0 0 0 Z " fill="#101010" transform="translate(300,75)"/>
<path d="M0 0 C4.95 0 9.9 0 15 0 C15 2.64 15 5.28 15 8 C10.05 8 5.1 8 0 8 C0 5.36 0 2.72 0 0 Z " fill="#77F657" transform="translate(47,24)"/>
<path d="M0 0 C0.99 0.99 1.98 1.98 3 3 C-0.96 6.96 -4.92 10.92 -9 15 C-12.56311466 13.21844267 -14.35645475 11.83236991 -17 9 C-16.67 8.01 -16.34 7.02 -16 6 C-15.13375 6.495 -15.13375 6.495 -14.25 7 C-11.80116138 8.27075898 -11.80116138 8.27075898 -8 8 C-5.77658619 6.26084364 -5.77658619 6.26084364 -3.75 4 C-2.69039062 2.88625 -2.69039062 2.88625 -1.609375 1.75 C-1.07828125 1.1725 -0.5471875 0.595 0 0 Z " fill="#70F64E" transform="translate(73,51)"/>
<path d="M0 0 C0.33 0.99 0.66 1.98 1 3 C-0.43554025 3.50559908 -1.8735202 4.0042749 -3.3125 4.5 C-4.51326172 4.91765625 -4.51326172 4.91765625 -5.73828125 5.34375 C-8 6 -8 6 -11 6 C-10.6875 3.625 -10.6875 3.625 -10 1 C-6.1496895 -1.56687367 -4.41430237 -0.83288724 0 0 Z " fill="#F1F1F1" transform="translate(274,80)"/>
<path d="M0 0 C-0.33 1.65 -0.66 3.3 -1 5 C-2.65 5.33 -4.3 5.66 -6 6 C-5.625 3.5625 -5.625 3.5625 -5 1 C-3 0 -3 0 0 0 Z " fill="#272727" transform="translate(300,75)"/>
</svg>
